<?xml version="1.0" standalone="no"?>
<!DOCTYPE svg PUBLIC "-//W3C//DTD SVG 20010904//EN"
 "http://www.w3.org/TR/2001/REC-SVG-20010904/DTD/svg10.dtd">
<svg version="1.0" xmlns="http://www.w3.org/2000/svg"
 width="371.000000pt" height="327.000000pt" viewBox="0 0 371.000000 327.000000"
 preserveAspectRatio="xMidYMid meet">
<metadata>
Created by potrace 1.15, written by Peter Selinger 2001-2017
</metadata>
<g transform="translate(0.000000,327.000000) scale(0.100000,-0.100000)"
fill="#000000" stroke="none">
<path d="M1160 3140 c0 -5 -8 -10 -18 -10 -10 0 -24 -9 -32 -20 -8 -11 -18
-20 -22 -20 -8 0 -178 -168 -178 -176 0 -6 -68 -74 -74 -74 -6 0 -176 -169
-176 -176 0 -6 -68 -74 -74 -74 -7 0 -176 -168 -176 -175 0 -7 -67 -75 -74
-75 -7 0 -176 -168 -176 -175 0 -8 -68 -75 -76 -75 -3 0 -24 -19 -46 -42 l-39
-43 3 -101 3 -102 852 -851 c468 -468 858 -851 866 -851 8 0 17 -7 21 -15 4
-12 23 -15 81 -15 58 0 77 3 81 15 4 8 13 15 21 15 8 0 398 384 867 853 814
814 853 854 870 907 27 81 12 115 -91 217 -46 44 -83 84 -83 87 0 8 -107 116
-115 116 -7 0 -135 128 -135 135 0 7 -108 115 -115 115 -7 0 -135 128 -135
135 0 6 -109 115 -116 115 -6 0 -134 128 -134 135 0 7 -109 115 -116 115 -3 0
-27 21 -53 48 -26 26 -57 53 -69 60 -26 14 -152 16 -152 2 0 -5 -8 -10 -17
-10 -10 0 -128 -111 -263 -248 l-245 -247 -245 247 c-135 136 -253 247 -262
248 -10 0 -18 5 -18 10 0 6 -30 10 -70 10 -40 0 -70 -4 -70 -10z m120 -220
c27 -27 53 -50 59 -50 6 0 11 -5 11 -10 0 -13 227 -240 240 -240 5 0 10 -5 10
-10 0 -6 21 -31 46 -57 l47 -46 -47 -44 c-25 -24 -47 -47 -47 -51 -1 -4 -57
-59 -124 -122 -67 -63 -124 -119 -125 -125 -1 -5 -58 -62 -125 -125 -67 -63
-123 -121 -124 -127 0 -7 -5 -13 -9 -13 -8 0 -241 -229 -243 -240 -1 -3 -50
-51 -108 -107 l-107 -103 -231 231 -232 230 95 94 c52 52 94 97 94 101 0 7 27
34 34 34 8 0 216 208 216 216 0 7 27 34 34 34 8 0 216 208 216 216 0 7 27 34
34 34 8 0 216 208 216 216 0 8 27 34 37 34 4 1 24 19 43 40 19 21 36 39 38 40
2 0 25 -22 52 -50z m1969 -1242 l-231 -230 -75 73 c-333 329 -973 974 -973
981 0 5 102 111 227 236 l227 228 528 -529 529 -528 -232 -231z m-844 138
c272 -272 495 -497 495 -501 0 -3 -225 -231 -500 -506 l-500 -500 0 1000 c0
551 2 1001 5 1001 3 0 228 -222 500 -494z m-669 -1454 c-5 -4 -956 944 -956
953 0 3 215 221 478 483 l477 478 3 -955 c1 -525 0 -956 -2 -959z"/>
</g>
</svg>
